<mxfile host="app.diagrams.net" modified="2021-05-25T11:27:47.667Z" agent="5.0 (X11; Linux x86_64) AppleWebKit/537.36 (KHTML, like Gecko) Chrome/90.0.4430.212 Safari/537.36" etag="JvvKJ9H5_eMjGx2rghcX" version="14.6.13" type="github">
  <diagram id="C5RBs43oDa-KdzZeNtuy" name="Page-1">
    <mxGraphModel dx="1038" dy="559" grid="1" gridSize="10" guides="1" tooltips="1" connect="1" arrows="1" fold="1" page="1" pageScale="1" pageWidth="827" pageHeight="1169" math="0" shadow="0">
      <root>
        <mxCell id="WIyWlLk6GJQsqaUBKTNV-0" />
        <mxCell id="WIyWlLk6GJQsqaUBKTNV-1" parent="WIyWlLk6GJQsqaUBKTNV-0" />
        <mxCell id="0iDsEEEvHEkECfOEyw78-0" value="Model" style="swimlane;fontStyle=1;align=center;verticalAlign=top;childLayout=stackLayout;horizontal=1;startSize=26;horizontalStack=0;resizeParent=1;resizeParentMax=0;resizeLast=0;collapsible=1;marginBottom=0;fillColor=#dae8fc;strokeColor=#6c8ebf;" vertex="1" parent="WIyWlLk6GJQsqaUBKTNV-1">
          <mxGeometry x="300" y="160" width="160" height="60" as="geometry" />
        </mxCell>
        <mxCell id="0iDsEEEvHEkECfOEyw78-2" value="" style="line;strokeWidth=1;fillColor=#dae8fc;align=left;verticalAlign=middle;spacingTop=-1;spacingLeft=3;spacingRight=3;rotatable=0;labelPosition=right;points=[];portConstraint=eastwest;strokeColor=#6c8ebf;" vertex="1" parent="0iDsEEEvHEkECfOEyw78-0">
          <mxGeometry y="26" width="160" height="8" as="geometry" />
        </mxCell>
        <mxCell id="0iDsEEEvHEkECfOEyw78-3" value="+ some_function()" style="text;strokeColor=#6c8ebf;fillColor=#dae8fc;align=left;verticalAlign=top;spacingLeft=4;spacingRight=4;overflow=hidden;rotatable=0;points=[[0,0.5],[1,0.5]];portConstraint=eastwest;" vertex="1" parent="0iDsEEEvHEkECfOEyw78-0">
          <mxGeometry y="34" width="160" height="26" as="geometry" />
        </mxCell>
        <mxCell id="0iDsEEEvHEkECfOEyw78-4" value="Controller" style="swimlane;fontStyle=1;align=center;verticalAlign=top;childLayout=stackLayout;horizontal=1;startSize=26;horizontalStack=0;resizeParent=1;resizeParentMax=0;resizeLast=0;collapsible=1;marginBottom=0;fillColor=#dae8fc;strokeColor=#6c8ebf;" vertex="1" parent="WIyWlLk6GJQsqaUBKTNV-1">
          <mxGeometry x="620" y="162" width="160" height="112" as="geometry" />
        </mxCell>
        <mxCell id="0iDsEEEvHEkECfOEyw78-5" value="Model" style="text;strokeColor=#6c8ebf;fillColor=#dae8fc;align=left;verticalAlign=top;spacingLeft=4;spacingRight=4;overflow=hidden;rotatable=0;points=[[0,0.5],[1,0.5]];portConstraint=eastwest;" vertex="1" parent="0iDsEEEvHEkECfOEyw78-4">
          <mxGeometry y="26" width="160" height="24" as="geometry" />
        </mxCell>
        <mxCell id="0iDsEEEvHEkECfOEyw78-6" value="" style="line;strokeWidth=1;fillColor=#dae8fc;align=left;verticalAlign=middle;spacingTop=-1;spacingLeft=3;spacingRight=3;rotatable=0;labelPosition=right;points=[];portConstraint=eastwest;strokeColor=#6c8ebf;" vertex="1" parent="0iDsEEEvHEkECfOEyw78-4">
          <mxGeometry y="50" width="160" height="8" as="geometry" />
        </mxCell>
        <mxCell id="0iDsEEEvHEkECfOEyw78-7" value="View" style="text;strokeColor=#6c8ebf;fillColor=#dae8fc;align=left;verticalAlign=top;spacingLeft=4;spacingRight=4;overflow=hidden;rotatable=0;points=[[0,0.5],[1,0.5]];portConstraint=eastwest;" vertex="1" parent="0iDsEEEvHEkECfOEyw78-4">
          <mxGeometry y="58" width="160" height="54" as="geometry" />
        </mxCell>
        <mxCell id="0iDsEEEvHEkECfOEyw78-8" value="View" style="swimlane;fontStyle=1;align=center;verticalAlign=top;childLayout=stackLayout;horizontal=1;startSize=26;horizontalStack=0;resizeParent=1;resizeParentMax=0;resizeLast=0;collapsible=1;marginBottom=0;fillColor=#dae8fc;strokeColor=#6c8ebf;" vertex="1" parent="WIyWlLk6GJQsqaUBKTNV-1">
          <mxGeometry x="970" y="160" width="160" height="60" as="geometry" />
        </mxCell>
        <mxCell id="0iDsEEEvHEkECfOEyw78-9" value="" style="line;strokeWidth=1;fillColor=#dae8fc;align=left;verticalAlign=middle;spacingTop=-1;spacingLeft=3;spacingRight=3;rotatable=0;labelPosition=right;points=[];portConstraint=eastwest;strokeColor=#6c8ebf;" vertex="1" parent="0iDsEEEvHEkECfOEyw78-8">
          <mxGeometry y="26" width="160" height="8" as="geometry" />
        </mxCell>
        <mxCell id="0iDsEEEvHEkECfOEyw78-10" value="+ some_function()" style="text;strokeColor=#6c8ebf;fillColor=#dae8fc;align=left;verticalAlign=top;spacingLeft=4;spacingRight=4;overflow=hidden;rotatable=0;points=[[0,0.5],[1,0.5]];portConstraint=eastwest;" vertex="1" parent="0iDsEEEvHEkECfOEyw78-8">
          <mxGeometry y="34" width="160" height="26" as="geometry" />
        </mxCell>
        <mxCell id="0iDsEEEvHEkECfOEyw78-11" value="notify" style="endArrow=open;endSize=12;dashed=1;html=1;exitX=0;exitY=0.5;exitDx=0;exitDy=0;entryX=1.003;entryY=0.1;entryDx=0;entryDy=0;entryPerimeter=0;fillColor=#dae8fc;strokeColor=#6c8ebf;" edge="1" parent="WIyWlLk6GJQsqaUBKTNV-1" source="0iDsEEEvHEkECfOEyw78-10" target="0iDsEEEvHEkECfOEyw78-4">
          <mxGeometry width="160" relative="1" as="geometry">
            <mxPoint x="620" y="290" as="sourcePoint" />
            <mxPoint x="780" y="290" as="targetPoint" />
            <Array as="points">
              <mxPoint x="930" y="207" />
              <mxPoint x="930" y="173" />
            </Array>
          </mxGeometry>
        </mxCell>
        <mxCell id="0iDsEEEvHEkECfOEyw78-12" value="notify" style="endArrow=open;endSize=12;dashed=1;html=1;exitX=1;exitY=0.5;exitDx=0;exitDy=0;entryX=0.013;entryY=0.107;entryDx=0;entryDy=0;entryPerimeter=0;fillColor=#dae8fc;strokeColor=#6c8ebf;" edge="1" parent="WIyWlLk6GJQsqaUBKTNV-1" source="0iDsEEEvHEkECfOEyw78-3" target="0iDsEEEvHEkECfOEyw78-4">
          <mxGeometry width="160" relative="1" as="geometry">
            <mxPoint x="620" y="290" as="sourcePoint" />
            <mxPoint x="780" y="290" as="targetPoint" />
            <Array as="points">
              <mxPoint x="520" y="207" />
              <mxPoint x="520" y="174" />
            </Array>
          </mxGeometry>
        </mxCell>
        <mxCell id="0iDsEEEvHEkECfOEyw78-13" value="" style="endArrow=open;endFill=1;endSize=12;html=1;exitX=0.008;exitY=0.817;exitDx=0;exitDy=0;entryX=1;entryY=0.5;entryDx=0;entryDy=0;exitPerimeter=0;fillColor=#dae8fc;strokeColor=#6c8ebf;" edge="1" parent="WIyWlLk6GJQsqaUBKTNV-1" source="0iDsEEEvHEkECfOEyw78-5" target="0iDsEEEvHEkECfOEyw78-3">
          <mxGeometry width="160" relative="1" as="geometry">
            <mxPoint x="620" y="290" as="sourcePoint" />
            <mxPoint x="780" y="290" as="targetPoint" />
          </mxGeometry>
        </mxCell>
        <mxCell id="0iDsEEEvHEkECfOEyw78-14" value="" style="endArrow=open;endFill=1;endSize=12;html=1;exitX=1;exitY=0.5;exitDx=0;exitDy=0;entryX=0;entryY=0.5;entryDx=0;entryDy=0;fillColor=#dae8fc;strokeColor=#6c8ebf;" edge="1" parent="WIyWlLk6GJQsqaUBKTNV-1" source="0iDsEEEvHEkECfOEyw78-7" target="0iDsEEEvHEkECfOEyw78-10">
          <mxGeometry width="160" relative="1" as="geometry">
            <mxPoint x="620" y="290" as="sourcePoint" />
            <mxPoint x="780" y="290" as="targetPoint" />
            <Array as="points">
              <mxPoint x="850" y="247" />
              <mxPoint x="850" y="207" />
            </Array>
          </mxGeometry>
        </mxCell>
        <mxCell id="0iDsEEEvHEkECfOEyw78-15" value="&lt;font style=&quot;font-size: 20px&quot;&gt;MVC&lt;/font&gt;" style="html=1;fillColor=#dae8fc;strokeColor=#6c8ebf;" vertex="1" parent="WIyWlLk6GJQsqaUBKTNV-1">
          <mxGeometry x="645" y="40" width="110" height="50" as="geometry" />
        </mxCell>
        <mxCell id="0iDsEEEvHEkECfOEyw78-16" value="Model" style="swimlane;fontStyle=1;align=center;verticalAlign=top;childLayout=stackLayout;horizontal=1;startSize=26;horizontalStack=0;resizeParent=1;resizeParentMax=0;resizeLast=0;collapsible=1;marginBottom=0;fillColor=#dae8fc;strokeColor=#6c8ebf;" vertex="1" parent="WIyWlLk6GJQsqaUBKTNV-1">
          <mxGeometry x="1470" y="160" width="160" height="60" as="geometry" />
        </mxCell>
        <mxCell id="0iDsEEEvHEkECfOEyw78-17" value="" style="line;strokeWidth=1;fillColor=#dae8fc;align=left;verticalAlign=middle;spacingTop=-1;spacingLeft=3;spacingRight=3;rotatable=0;labelPosition=right;points=[];portConstraint=eastwest;strokeColor=#6c8ebf;" vertex="1" parent="0iDsEEEvHEkECfOEyw78-16">
          <mxGeometry y="26" width="160" height="8" as="geometry" />
        </mxCell>
        <mxCell id="0iDsEEEvHEkECfOEyw78-18" value="+ some_function()" style="text;strokeColor=#6c8ebf;fillColor=#dae8fc;align=left;verticalAlign=top;spacingLeft=4;spacingRight=4;overflow=hidden;rotatable=0;points=[[0,0.5],[1,0.5]];portConstraint=eastwest;" vertex="1" parent="0iDsEEEvHEkECfOEyw78-16">
          <mxGeometry y="34" width="160" height="26" as="geometry" />
        </mxCell>
        <mxCell id="0iDsEEEvHEkECfOEyw78-37" style="edgeStyle=orthogonalEdgeStyle;rounded=0;orthogonalLoop=1;jettySize=auto;html=1;entryX=0.5;entryY=0;entryDx=0;entryDy=0;" edge="1" parent="WIyWlLk6GJQsqaUBKTNV-1" source="0iDsEEEvHEkECfOEyw78-19" target="0iDsEEEvHEkECfOEyw78-31">
          <mxGeometry relative="1" as="geometry" />
        </mxCell>
        <mxCell id="0iDsEEEvHEkECfOEyw78-19" value="Presenter" style="swimlane;fontStyle=1;align=center;verticalAlign=top;childLayout=stackLayout;horizontal=1;startSize=26;horizontalStack=0;resizeParent=1;resizeParentMax=0;resizeLast=0;collapsible=1;marginBottom=0;fillColor=#dae8fc;strokeColor=#6c8ebf;" vertex="1" parent="WIyWlLk6GJQsqaUBKTNV-1">
          <mxGeometry x="1790" y="162" width="160" height="112" as="geometry" />
        </mxCell>
        <mxCell id="0iDsEEEvHEkECfOEyw78-38" value="Model" style="text;strokeColor=#6c8ebf;fillColor=#dae8fc;align=left;verticalAlign=top;spacingLeft=4;spacingRight=4;overflow=hidden;rotatable=0;points=[[0,0.5],[1,0.5]];portConstraint=eastwest;" vertex="1" parent="0iDsEEEvHEkECfOEyw78-19">
          <mxGeometry y="26" width="160" height="24" as="geometry" />
        </mxCell>
        <mxCell id="0iDsEEEvHEkECfOEyw78-21" value="" style="line;strokeWidth=1;fillColor=#dae8fc;align=left;verticalAlign=middle;spacingTop=-1;spacingLeft=3;spacingRight=3;rotatable=0;labelPosition=right;points=[];portConstraint=eastwest;strokeColor=#6c8ebf;" vertex="1" parent="0iDsEEEvHEkECfOEyw78-19">
          <mxGeometry y="50" width="160" height="8" as="geometry" />
        </mxCell>
        <mxCell id="0iDsEEEvHEkECfOEyw78-22" value="View" style="text;strokeColor=#6c8ebf;fillColor=#dae8fc;align=left;verticalAlign=top;spacingLeft=4;spacingRight=4;overflow=hidden;rotatable=0;points=[[0,0.5],[1,0.5]];portConstraint=eastwest;" vertex="1" parent="0iDsEEEvHEkECfOEyw78-19">
          <mxGeometry y="58" width="160" height="54" as="geometry" />
        </mxCell>
        <mxCell id="0iDsEEEvHEkECfOEyw78-41" style="edgeStyle=orthogonalEdgeStyle;rounded=0;orthogonalLoop=1;jettySize=auto;html=1;entryX=1;entryY=0.5;entryDx=0;entryDy=0;" edge="1" parent="WIyWlLk6GJQsqaUBKTNV-1" source="0iDsEEEvHEkECfOEyw78-23" target="0iDsEEEvHEkECfOEyw78-31">
          <mxGeometry relative="1" as="geometry">
            <Array as="points">
              <mxPoint x="2220" y="377" />
            </Array>
          </mxGeometry>
        </mxCell>
        <mxCell id="0iDsEEEvHEkECfOEyw78-23" value="View: ViewInput" style="swimlane;fontStyle=1;align=center;verticalAlign=top;childLayout=stackLayout;horizontal=1;startSize=26;horizontalStack=0;resizeParent=1;resizeParentMax=0;resizeLast=0;collapsible=1;marginBottom=0;fillColor=#dae8fc;strokeColor=#6c8ebf;" vertex="1" parent="WIyWlLk6GJQsqaUBKTNV-1">
          <mxGeometry x="2140" y="160" width="160" height="60" as="geometry" />
        </mxCell>
        <mxCell id="0iDsEEEvHEkECfOEyw78-24" value="" style="line;strokeWidth=1;fillColor=#dae8fc;align=left;verticalAlign=middle;spacingTop=-1;spacingLeft=3;spacingRight=3;rotatable=0;labelPosition=right;points=[];portConstraint=eastwest;strokeColor=#6c8ebf;" vertex="1" parent="0iDsEEEvHEkECfOEyw78-23">
          <mxGeometry y="26" width="160" height="8" as="geometry" />
        </mxCell>
        <mxCell id="0iDsEEEvHEkECfOEyw78-25" value="+ some_function()" style="text;strokeColor=#6c8ebf;fillColor=#dae8fc;align=left;verticalAlign=top;spacingLeft=4;spacingRight=4;overflow=hidden;rotatable=0;points=[[0,0.5],[1,0.5]];portConstraint=eastwest;" vertex="1" parent="0iDsEEEvHEkECfOEyw78-23">
          <mxGeometry y="34" width="160" height="26" as="geometry" />
        </mxCell>
        <mxCell id="0iDsEEEvHEkECfOEyw78-26" value="notify" style="endArrow=open;endSize=12;dashed=1;html=1;exitX=0;exitY=0.5;exitDx=0;exitDy=0;entryX=1.003;entryY=0.1;entryDx=0;entryDy=0;entryPerimeter=0;fillColor=#dae8fc;strokeColor=#6c8ebf;" edge="1" parent="WIyWlLk6GJQsqaUBKTNV-1" source="0iDsEEEvHEkECfOEyw78-25" target="0iDsEEEvHEkECfOEyw78-19">
          <mxGeometry width="160" relative="1" as="geometry">
            <mxPoint x="1790" y="290" as="sourcePoint" />
            <mxPoint x="1950" y="290" as="targetPoint" />
            <Array as="points">
              <mxPoint x="2100" y="207" />
              <mxPoint x="2100" y="173" />
            </Array>
          </mxGeometry>
        </mxCell>
        <mxCell id="0iDsEEEvHEkECfOEyw78-27" value="notify" style="endArrow=open;endSize=12;dashed=1;html=1;exitX=1;exitY=0.5;exitDx=0;exitDy=0;entryX=0.013;entryY=0.107;entryDx=0;entryDy=0;entryPerimeter=0;fillColor=#dae8fc;strokeColor=#6c8ebf;" edge="1" parent="WIyWlLk6GJQsqaUBKTNV-1" source="0iDsEEEvHEkECfOEyw78-18" target="0iDsEEEvHEkECfOEyw78-19">
          <mxGeometry width="160" relative="1" as="geometry">
            <mxPoint x="1790" y="290" as="sourcePoint" />
            <mxPoint x="1950" y="290" as="targetPoint" />
            <Array as="points">
              <mxPoint x="1690" y="207" />
              <mxPoint x="1690" y="174" />
            </Array>
          </mxGeometry>
        </mxCell>
        <mxCell id="0iDsEEEvHEkECfOEyw78-30" value="&lt;font style=&quot;font-size: 20px&quot;&gt;MVP&lt;/font&gt;" style="html=1;fillColor=#dae8fc;strokeColor=#6c8ebf;" vertex="1" parent="WIyWlLk6GJQsqaUBKTNV-1">
          <mxGeometry x="1815" y="40" width="110" height="50" as="geometry" />
        </mxCell>
        <mxCell id="0iDsEEEvHEkECfOEyw78-31" value="View" style="swimlane;fontStyle=1;align=center;verticalAlign=top;childLayout=stackLayout;horizontal=1;startSize=26;horizontalStack=0;resizeParent=1;resizeParentMax=0;resizeLast=0;collapsible=1;marginBottom=0;" vertex="1" parent="WIyWlLk6GJQsqaUBKTNV-1">
          <mxGeometry x="1790" y="360" width="160" height="34" as="geometry" />
        </mxCell>
        <mxCell id="0iDsEEEvHEkECfOEyw78-33" value="" style="line;strokeWidth=1;fillColor=none;align=left;verticalAlign=middle;spacingTop=-1;spacingLeft=3;spacingRight=3;rotatable=0;labelPosition=right;points=[];portConstraint=eastwest;" vertex="1" parent="0iDsEEEvHEkECfOEyw78-31">
          <mxGeometry y="26" width="160" height="8" as="geometry" />
        </mxCell>
        <mxCell id="0iDsEEEvHEkECfOEyw78-39" style="edgeStyle=orthogonalEdgeStyle;rounded=0;orthogonalLoop=1;jettySize=auto;html=1;entryX=1;entryY=0.5;entryDx=0;entryDy=0;" edge="1" parent="WIyWlLk6GJQsqaUBKTNV-1" source="0iDsEEEvHEkECfOEyw78-38" target="0iDsEEEvHEkECfOEyw78-18">
          <mxGeometry relative="1" as="geometry" />
        </mxCell>
        <mxCell id="0iDsEEEvHEkECfOEyw78-42" value="Model" style="swimlane;fontStyle=1;align=center;verticalAlign=top;childLayout=stackLayout;horizontal=1;startSize=26;horizontalStack=0;resizeParent=1;resizeParentMax=0;resizeLast=0;collapsible=1;marginBottom=0;fillColor=#dae8fc;strokeColor=#6c8ebf;" vertex="1" parent="WIyWlLk6GJQsqaUBKTNV-1">
          <mxGeometry x="2570" y="160" width="160" height="60" as="geometry" />
        </mxCell>
        <mxCell id="0iDsEEEvHEkECfOEyw78-43" value="" style="line;strokeWidth=1;fillColor=#dae8fc;align=left;verticalAlign=middle;spacingTop=-1;spacingLeft=3;spacingRight=3;rotatable=0;labelPosition=right;points=[];portConstraint=eastwest;strokeColor=#6c8ebf;" vertex="1" parent="0iDsEEEvHEkECfOEyw78-42">
          <mxGeometry y="26" width="160" height="8" as="geometry" />
        </mxCell>
        <mxCell id="0iDsEEEvHEkECfOEyw78-44" value="+ some_function()" style="text;strokeColor=#6c8ebf;fillColor=#dae8fc;align=left;verticalAlign=top;spacingLeft=4;spacingRight=4;overflow=hidden;rotatable=0;points=[[0,0.5],[1,0.5]];portConstraint=eastwest;" vertex="1" parent="0iDsEEEvHEkECfOEyw78-42">
          <mxGeometry y="34" width="160" height="26" as="geometry" />
        </mxCell>
        <mxCell id="0iDsEEEvHEkECfOEyw78-46" value="ViewModel" style="swimlane;fontStyle=1;align=center;verticalAlign=top;childLayout=stackLayout;horizontal=1;startSize=26;horizontalStack=0;resizeParent=1;resizeParentMax=0;resizeLast=0;collapsible=1;marginBottom=0;fillColor=#dae8fc;strokeColor=#6c8ebf;" vertex="1" parent="WIyWlLk6GJQsqaUBKTNV-1">
          <mxGeometry x="2890" y="162" width="160" height="112" as="geometry" />
        </mxCell>
        <mxCell id="0iDsEEEvHEkECfOEyw78-47" value="Model" style="text;strokeColor=#6c8ebf;fillColor=#dae8fc;align=left;verticalAlign=top;spacingLeft=4;spacingRight=4;overflow=hidden;rotatable=0;points=[[0,0.5],[1,0.5]];portConstraint=eastwest;" vertex="1" parent="0iDsEEEvHEkECfOEyw78-46">
          <mxGeometry y="26" width="160" height="24" as="geometry" />
        </mxCell>
        <mxCell id="0iDsEEEvHEkECfOEyw78-49" value="" style="line;strokeWidth=1;fillColor=#dae8fc;align=left;verticalAlign=middle;spacingTop=-1;spacingLeft=3;spacingRight=3;rotatable=0;labelPosition=right;points=[];portConstraint=eastwest;strokeColor=#6c8ebf;" vertex="1" parent="0iDsEEEvHEkECfOEyw78-46">
          <mxGeometry y="50" width="160" height="8" as="geometry" />
        </mxCell>
        <mxCell id="0iDsEEEvHEkECfOEyw78-50" value="View" style="text;strokeColor=#6c8ebf;fillColor=#dae8fc;align=left;verticalAlign=top;spacingLeft=4;spacingRight=4;overflow=hidden;rotatable=0;points=[[0,0.5],[1,0.5]];portConstraint=eastwest;" vertex="1" parent="0iDsEEEvHEkECfOEyw78-46">
          <mxGeometry y="58" width="160" height="54" as="geometry" />
        </mxCell>
        <mxCell id="0iDsEEEvHEkECfOEyw78-52" value="View: ViewInput" style="swimlane;fontStyle=1;align=center;verticalAlign=top;childLayout=stackLayout;horizontal=1;startSize=26;horizontalStack=0;resizeParent=1;resizeParentMax=0;resizeLast=0;collapsible=1;marginBottom=0;fillColor=#dae8fc;strokeColor=#6c8ebf;" vertex="1" parent="WIyWlLk6GJQsqaUBKTNV-1">
          <mxGeometry x="3260" y="160" width="160" height="60" as="geometry" />
        </mxCell>
        <mxCell id="0iDsEEEvHEkECfOEyw78-53" value="" style="line;strokeWidth=1;fillColor=#dae8fc;align=left;verticalAlign=middle;spacingTop=-1;spacingLeft=3;spacingRight=3;rotatable=0;labelPosition=right;points=[];portConstraint=eastwest;strokeColor=#6c8ebf;" vertex="1" parent="0iDsEEEvHEkECfOEyw78-52">
          <mxGeometry y="26" width="160" height="8" as="geometry" />
        </mxCell>
        <mxCell id="0iDsEEEvHEkECfOEyw78-54" value="+ some_function()" style="text;strokeColor=#6c8ebf;fillColor=#dae8fc;align=left;verticalAlign=top;spacingLeft=4;spacingRight=4;overflow=hidden;rotatable=0;points=[[0,0.5],[1,0.5]];portConstraint=eastwest;" vertex="1" parent="0iDsEEEvHEkECfOEyw78-52">
          <mxGeometry y="34" width="160" height="26" as="geometry" />
        </mxCell>
        <mxCell id="0iDsEEEvHEkECfOEyw78-56" value="notify" style="endArrow=open;endSize=12;dashed=1;html=1;exitX=1;exitY=0.5;exitDx=0;exitDy=0;entryX=0.013;entryY=0.107;entryDx=0;entryDy=0;entryPerimeter=0;fillColor=#dae8fc;strokeColor=#6c8ebf;" edge="1" parent="WIyWlLk6GJQsqaUBKTNV-1" source="0iDsEEEvHEkECfOEyw78-44" target="0iDsEEEvHEkECfOEyw78-46">
          <mxGeometry width="160" relative="1" as="geometry">
            <mxPoint x="2890" y="290" as="sourcePoint" />
            <mxPoint x="3050" y="290" as="targetPoint" />
            <Array as="points">
              <mxPoint x="2790" y="207" />
              <mxPoint x="2790" y="174" />
            </Array>
          </mxGeometry>
        </mxCell>
        <mxCell id="0iDsEEEvHEkECfOEyw78-57" value="&lt;font style=&quot;font-size: 20px&quot;&gt;MVVM&lt;/font&gt;" style="html=1;fillColor=#dae8fc;strokeColor=#6c8ebf;" vertex="1" parent="WIyWlLk6GJQsqaUBKTNV-1">
          <mxGeometry x="2915" y="40" width="110" height="50" as="geometry" />
        </mxCell>
        <mxCell id="0iDsEEEvHEkECfOEyw78-60" style="edgeStyle=orthogonalEdgeStyle;rounded=0;orthogonalLoop=1;jettySize=auto;html=1;entryX=1;entryY=0.5;entryDx=0;entryDy=0;" edge="1" parent="WIyWlLk6GJQsqaUBKTNV-1" source="0iDsEEEvHEkECfOEyw78-47" target="0iDsEEEvHEkECfOEyw78-44">
          <mxGeometry relative="1" as="geometry" />
        </mxCell>
        <mxCell id="0iDsEEEvHEkECfOEyw78-61" value="Observer" style="html=1;" vertex="1" parent="WIyWlLk6GJQsqaUBKTNV-1">
          <mxGeometry x="3110" y="344" width="110" height="50" as="geometry" />
        </mxCell>
        <mxCell id="0iDsEEEvHEkECfOEyw78-62" style="edgeStyle=orthogonalEdgeStyle;rounded=0;orthogonalLoop=1;jettySize=auto;html=1;entryX=1;entryY=0.5;entryDx=0;entryDy=0;" edge="1" parent="WIyWlLk6GJQsqaUBKTNV-1" source="0iDsEEEvHEkECfOEyw78-54" target="0iDsEEEvHEkECfOEyw78-61">
          <mxGeometry relative="1" as="geometry" />
        </mxCell>
        <mxCell id="0iDsEEEvHEkECfOEyw78-63" style="edgeStyle=orthogonalEdgeStyle;rounded=0;orthogonalLoop=1;jettySize=auto;html=1;entryX=0;entryY=0.5;entryDx=0;entryDy=0;" edge="1" parent="WIyWlLk6GJQsqaUBKTNV-1" source="0iDsEEEvHEkECfOEyw78-47" target="0iDsEEEvHEkECfOEyw78-61">
          <mxGeometry relative="1" as="geometry" />
        </mxCell>
      </root>
    </mxGraphModel>
  </diagram>
</mxfile>
